<svg width="18" height="20" viewBox="0 0 18 20" fill="none" xmlns="http://www.w3.org/2000/svg">
<path fill-rule="evenodd" clip-rule="evenodd" d="M7.07837 8.48474C6.28318 8.48474 5.63855 9.12937 5.63855 9.92457C5.63855 10.7198 6.28318 11.3644 7.07837 11.3644H15.0421C15.8373 11.3644 16.4819 10.7198 16.4819 9.92457C16.4819 9.12937 15.8373 8.48474 15.0421 8.48474H7.07837ZM7.07837 13.3332C6.28318 13.3332 5.63855 13.9779 5.63855 14.7731C5.63855 15.5682 6.28318 16.2129 7.07837 16.2129H15.0421C15.8373 16.2129 16.4819 15.5682 16.4819 14.7731C16.4819 13.9779 15.8373 13.3332 15.0421 13.3332H7.07837Z" fill="#5F738C"/>
<rect x="6.35846" y="4.3562" width="9.40355" height="1.43982" rx="0.719912" fill="#5F738C" stroke="#5F738C" stroke-width="1.43982"/>
<ellipse cx="3.03613" cy="5.08207" rx="1.3012" ry="1.44578" fill="#5F738C"/>
<ellipse cx="3.03613" cy="9.93062" rx="1.3012" ry="1.44578" fill="#5F738C"/>
<ellipse cx="3.03613" cy="14.7791" rx="1.3012" ry="1.44578" fill="#5F738C"/>
</svg>
